<mxfile host="Electron" modified="2023-08-31T06:52:50.268Z" agent="Mozilla/5.0 (Windows NT 10.0; Win64; x64) AppleWebKit/537.36 (KHTML, like Gecko) draw.io/21.6.8 Chrome/114.0.5735.289 Electron/25.5.0 Safari/537.36" etag="BIU8jMRa_jMayDx9JEPC" version="21.6.8" type="device">
  <diagram name="Page-1" id="4NJL7Cgm-D8fxgxhx04t">
    <mxGraphModel dx="1395" dy="703" grid="1" gridSize="10" guides="1" tooltips="1" connect="1" arrows="1" fold="1" page="1" pageScale="1" pageWidth="1100" pageHeight="850" math="0" shadow="0">
      <root>
        <mxCell id="0" />
        <mxCell id="1" parent="0" />
        <mxCell id="hdl40LES_-XfD5YzAbGM-5" value="AWS Cloud" style="points=[[0,0],[0.25,0],[0.5,0],[0.75,0],[1,0],[1,0.25],[1,0.5],[1,0.75],[1,1],[0.75,1],[0.5,1],[0.25,1],[0,1],[0,0.75],[0,0.5],[0,0.25]];outlineConnect=0;gradientColor=none;html=1;whiteSpace=wrap;fontSize=12;fontStyle=0;container=1;pointerEvents=0;collapsible=0;recursiveResize=0;shape=mxgraph.aws4.group;grIcon=mxgraph.aws4.group_aws_cloud_alt;strokeColor=#232F3E;fillColor=none;verticalAlign=top;align=left;spacingLeft=30;fontColor=#232F3E;dashed=0;" vertex="1" parent="1">
          <mxGeometry x="230" y="175" width="530" height="500" as="geometry" />
        </mxCell>
        <mxCell id="hdl40LES_-XfD5YzAbGM-10" value="Region" style="points=[[0,0],[0.25,0],[0.5,0],[0.75,0],[1,0],[1,0.25],[1,0.5],[1,0.75],[1,1],[0.75,1],[0.5,1],[0.25,1],[0,1],[0,0.75],[0,0.5],[0,0.25]];outlineConnect=0;gradientColor=none;html=1;whiteSpace=wrap;fontSize=12;fontStyle=0;container=1;pointerEvents=0;collapsible=0;recursiveResize=0;shape=mxgraph.aws4.group;grIcon=mxgraph.aws4.group_region;strokeColor=#147EBA;fillColor=none;verticalAlign=top;align=left;spacingLeft=30;fontColor=#147EBA;dashed=1;" vertex="1" parent="hdl40LES_-XfD5YzAbGM-5">
          <mxGeometry x="30" y="40" width="470" height="420" as="geometry" />
        </mxCell>
        <mxCell id="hdl40LES_-XfD5YzAbGM-6" value="Availability zone" style="sketch=0;outlineConnect=0;gradientColor=none;html=1;whiteSpace=wrap;fontSize=12;fontStyle=0;shape=mxgraph.aws4.group;grIcon=mxgraph.aws4.group_availability_zone;strokeColor=#545B64;fillColor=none;verticalAlign=top;align=left;spacingLeft=30;fontColor=#545B64;dashed=1;" vertex="1" parent="hdl40LES_-XfD5YzAbGM-10">
          <mxGeometry x="100" y="20" width="270" height="360" as="geometry" />
        </mxCell>
        <mxCell id="hdl40LES_-XfD5YzAbGM-1" value="VPC" style="points=[[0,0],[0.25,0],[0.5,0],[0.75,0],[1,0],[1,0.25],[1,0.5],[1,0.75],[1,1],[0.75,1],[0.5,1],[0.25,1],[0,1],[0,0.75],[0,0.5],[0,0.25]];outlineConnect=0;gradientColor=none;html=1;whiteSpace=wrap;fontSize=12;fontStyle=0;container=1;pointerEvents=0;collapsible=0;recursiveResize=0;shape=mxgraph.aws4.group;grIcon=mxgraph.aws4.group_vpc;strokeColor=#248814;fillColor=none;verticalAlign=top;align=left;spacingLeft=30;fontColor=#AAB7B8;dashed=0;" vertex="1" parent="hdl40LES_-XfD5YzAbGM-10">
          <mxGeometry x="20" y="80" width="430" height="250" as="geometry" />
        </mxCell>
        <mxCell id="hdl40LES_-XfD5YzAbGM-9" value="Public subnet" style="points=[[0,0],[0.25,0],[0.5,0],[0.75,0],[1,0],[1,0.25],[1,0.5],[1,0.75],[1,1],[0.75,1],[0.5,1],[0.25,1],[0,1],[0,0.75],[0,0.5],[0,0.25]];outlineConnect=0;gradientColor=none;html=1;whiteSpace=wrap;fontSize=12;fontStyle=0;container=1;pointerEvents=0;collapsible=0;recursiveResize=0;shape=mxgraph.aws4.group;grIcon=mxgraph.aws4.group_security_group;grStroke=0;strokeColor=#248814;fillColor=#E9F3E6;verticalAlign=top;align=left;spacingLeft=30;fontColor=#248814;dashed=0;" vertex="1" parent="hdl40LES_-XfD5YzAbGM-10">
          <mxGeometry x="118.75" y="90" width="232.5" height="220" as="geometry" />
        </mxCell>
        <mxCell id="hdl40LES_-XfD5YzAbGM-7" value="EC2 instance contents" style="points=[[0,0],[0.25,0],[0.5,0],[0.75,0],[1,0],[1,0.25],[1,0.5],[1,0.75],[1,1],[0.75,1],[0.5,1],[0.25,1],[0,1],[0,0.75],[0,0.5],[0,0.25]];outlineConnect=0;gradientColor=none;html=1;whiteSpace=wrap;fontSize=12;fontStyle=0;container=1;pointerEvents=0;collapsible=0;recursiveResize=0;shape=mxgraph.aws4.group;grIcon=mxgraph.aws4.group_ec2_instance_contents;strokeColor=#D86613;fillColor=none;verticalAlign=top;align=left;spacingLeft=30;fontColor=#D86613;dashed=0;" vertex="1" parent="hdl40LES_-XfD5YzAbGM-10">
          <mxGeometry x="151.25" y="125" width="167.5" height="160" as="geometry" />
        </mxCell>
        <mxCell id="hdl40LES_-XfD5YzAbGM-8" value="Mosquitto Broker" style="outlineConnect=0;dashed=0;verticalLabelPosition=bottom;verticalAlign=top;align=center;html=1;shape=mxgraph.aws3.mqtt_protocol;fillColor=#5294CF;gradientColor=none;" vertex="1" parent="hdl40LES_-XfD5YzAbGM-7">
          <mxGeometry x="58.5" y="54" width="63" height="66" as="geometry" />
        </mxCell>
        <mxCell id="hdl40LES_-XfD5YzAbGM-14" value="Publisher&lt;br&gt;JMeter" style="strokeColor=#dddddd;shadow=1;strokeWidth=1;rounded=1;absoluteArcSize=1;arcSize=2;labelPosition=center;verticalLabelPosition=middle;align=center;verticalAlign=bottom;spacingLeft=0;fontColor=#999999;fontSize=12;whiteSpace=wrap;spacingBottom=2;html=1;" vertex="1" parent="1">
          <mxGeometry x="40" y="380" width="80" height="90" as="geometry" />
        </mxCell>
        <mxCell id="hdl40LES_-XfD5YzAbGM-15" value="" style="sketch=0;dashed=0;connectable=0;html=1;fillColor=#757575;strokeColor=none;shape=mxgraph.gcp2.laptop;part=1;" vertex="1" parent="hdl40LES_-XfD5YzAbGM-14">
          <mxGeometry x="0.5" width="50" height="33" relative="1" as="geometry">
            <mxPoint x="-25" y="18.5" as="offset" />
          </mxGeometry>
        </mxCell>
        <mxCell id="hdl40LES_-XfD5YzAbGM-16" value="Subscriber&lt;br&gt;JMeter" style="strokeColor=#dddddd;shadow=1;strokeWidth=1;rounded=1;absoluteArcSize=1;arcSize=2;labelPosition=center;verticalLabelPosition=middle;align=center;verticalAlign=bottom;spacingLeft=0;fontColor=#999999;fontSize=12;whiteSpace=wrap;spacingBottom=2;html=1;" vertex="1" parent="1">
          <mxGeometry x="870" y="382" width="80" height="90" as="geometry" />
        </mxCell>
        <mxCell id="hdl40LES_-XfD5YzAbGM-17" value="" style="sketch=0;dashed=0;connectable=0;html=1;fillColor=#757575;strokeColor=none;shape=mxgraph.gcp2.laptop;part=1;" vertex="1" parent="hdl40LES_-XfD5YzAbGM-16">
          <mxGeometry x="0.5" width="50" height="33" relative="1" as="geometry">
            <mxPoint x="-25" y="18.5" as="offset" />
          </mxGeometry>
        </mxCell>
        <mxCell id="hdl40LES_-XfD5YzAbGM-18" value="" style="endArrow=classic;html=1;rounded=0;exitX=1;exitY=0.5;exitDx=0;exitDy=0;entryX=0;entryY=0.5;entryDx=0;entryDy=0;entryPerimeter=0;" edge="1" parent="1" source="hdl40LES_-XfD5YzAbGM-14" target="hdl40LES_-XfD5YzAbGM-8">
          <mxGeometry relative="1" as="geometry">
            <mxPoint x="140" y="430" as="sourcePoint" />
            <mxPoint x="220" y="430" as="targetPoint" />
          </mxGeometry>
        </mxCell>
        <mxCell id="hdl40LES_-XfD5YzAbGM-19" value="PUBLISH" style="edgeLabel;resizable=0;html=1;align=center;verticalAlign=middle;" connectable="0" vertex="1" parent="hdl40LES_-XfD5YzAbGM-18">
          <mxGeometry relative="1" as="geometry">
            <mxPoint x="-119" y="-12" as="offset" />
          </mxGeometry>
        </mxCell>
        <mxCell id="hdl40LES_-XfD5YzAbGM-24" value="n messages" style="edgeLabel;html=1;align=center;verticalAlign=middle;resizable=0;points=[];" vertex="1" connectable="0" parent="hdl40LES_-XfD5YzAbGM-18">
          <mxGeometry x="-0.6569" y="-1" relative="1" as="geometry">
            <mxPoint x="-6" y="11" as="offset" />
          </mxGeometry>
        </mxCell>
        <mxCell id="hdl40LES_-XfD5YzAbGM-20" value="" style="endArrow=classic;html=1;rounded=0;exitX=0;exitY=0.5;exitDx=0;exitDy=0;entryX=0.95;entryY=0.5;entryDx=0;entryDy=0;entryPerimeter=0;" edge="1" parent="1" source="hdl40LES_-XfD5YzAbGM-16" target="hdl40LES_-XfD5YzAbGM-8">
          <mxGeometry relative="1" as="geometry">
            <mxPoint x="649.9999999999999" y="290" as="sourcePoint" />
            <mxPoint x="1230.65" y="290" as="targetPoint" />
          </mxGeometry>
        </mxCell>
        <mxCell id="hdl40LES_-XfD5YzAbGM-21" value="SUBSCRIBE" style="edgeLabel;resizable=0;html=1;align=center;verticalAlign=middle;" connectable="0" vertex="1" parent="hdl40LES_-XfD5YzAbGM-20">
          <mxGeometry relative="1" as="geometry">
            <mxPoint x="121" y="-12" as="offset" />
          </mxGeometry>
        </mxCell>
        <mxCell id="hdl40LES_-XfD5YzAbGM-25" value="n messages" style="edgeLabel;html=1;align=center;verticalAlign=middle;resizable=0;points=[];" vertex="1" connectable="0" parent="1">
          <mxGeometry x="820.0033007545317" y="440.003080256848" as="geometry" />
        </mxCell>
      </root>
    </mxGraphModel>
  </diagram>
</mxfile>
